PathFileType	4	(X/Y/Z)	C:\Users\ebm\Documents\Erivelton\Erivelton2\wc4.trc
DataRate	CameraRate	NumFrames	NumMarkers	Units	OrigDataRate	OrigDataStartFrame	OrigNumFrames
150.00	150.00	      6	28	mm	150.00	1079	      1232
Frame#	Time	IJ			PX			C7			T8			RAC			RAS			RPS			RAI			RPI			RLE			RME			RRS			RUS			R3M			R5M			LAC			LAS			LPS			LAI			LPI			LLE			LME			LRS			LUS			L3M			L5M			RW			LW			V_mid_elbow_r			V_mid_elbow_l			V_mid_wrist_r			V_mid_wrist_l			V_mid_trunk_low			V_mid_trunk_upp			
		X1	Y1	Z1	X2	Y2	Z2	X3	Y3	Z3	X4	Y4	Z4	X5	Y5	Z5	X6	Y6	Z6	X7	Y7	Z7	X8	Y8	Z8	X9	Y9	Z9	X10	Y10	Z10	X11	Y11	Z11	X12	Y12	Z12	X13	Y13	Z13	X14	Y14	Z14	X15	Y15	Z15	X16	Y16	Z16	X17	Y17	Z17	X18	Y18	Z18	X19	Y19	Z19	X20	Y20	Z20	X21	Y21	Z21	X22	Y22	Z22	X23	Y23	Z23	X24	Y24	Z24	X25	Y25	Z25	X26	Y26	Z26	X27	Y27	Z27	X28	Y28	Z28	

1079	7.187				4289.14502	847.02759	195.60849	4169.87256	1125.04211	167.46597	4082.24561	983.04694	178.81741	4201.82324	1085.51758	369.96545	4098.81543	959.11700	449.63791	4068.98218	997.77924	436.31915	4040.76587	915.80267	480.29703	4007.25415	955.12189	467.21539	3966.03271	898.06897	494.43063	3945.00171	881.14709	416.00650	4090.53418	657.90057	457.25595	4044.02661	645.55786	496.00070	4074.46680	573.38190	502.65582	4110.04834	587.96576	496.69388	4196.53906	1072.91833	-2.60802	4101.97266	979.63342	-83.46252	4066.55347	994.55896	-52.48399	4051.79224	927.67188	-121.05473	4010.28345	943.42548	-87.16444	3987.85718	864.91400	-155.18053	3949.53052	855.82922	-83.91319				4045.95508	599.07611	-157.65942							4168.25391	292.39023	497.54953				
1080	7.193				4297.18262	846.99554	195.95644	4178.22559	1124.95850	167.77827	4090.29272	983.32465	179.15550	4209.85547	1085.37915	370.27802	4106.75879	958.83698	449.82242	4076.85181	997.12732	436.63007	4048.69922	915.46436	480.19241	4015.18335	954.90845	467.34637	3974.01196	897.73987	494.22552	3952.96533	881.27625	415.96582	4096.35303	656.71582	456.54739	4049.70898	644.46899	495.39026	4080.09546	572.25598	502.18918	4115.68604	587.05322	496.41473	4204.46973	1072.58435	-2.47067	4110.12109	978.81274	-83.11124	4074.67529	993.87433	-52.20255	4059.89111	926.67053	-120.55055	4018.26782	942.48132	-86.76084	3996.16382	863.71350	-154.35484	3957.88232	855.10223	-83.31078				4052.29150	597.24817	-156.38277							4175.72217	292.39636	498.12299				
1081	7.200				4305.25342	847.01471	196.38324	4186.32178	1125.01611	167.91739	4098.16455	983.39044	179.57155	4217.89697	1085.01111	370.46643	4114.90967	958.46704	449.93182	4085.07178	997.14868	436.82797	4056.82666	915.02008	480.17087	4023.23291	954.24414	467.38626	3982.02979	897.12518	494.16577	3960.87671	881.16730	415.88037	4102.35400	655.25348	455.97806	4055.73169	643.18164	494.87018	4086.13403	571.20813	501.74155	4121.54590	585.98798	496.41898	4212.62695	1072.34106	-2.28951	4118.27393	977.98645	-82.77207	4082.69019	993.04401	-51.92318	4068.12915	925.56378	-120.01963	4026.57275	941.39929	-86.35253	4004.75049	862.41833	-153.63785	3966.07031	854.24420	-82.66994	4130.45264	551.89532	-145.11591	4059.29077	595.38428	-154.70486	4094.34546	537.18469	-155.04079				4183.16064	292.47186	498.61847				
1082	7.207				4313.15820	847.08411	196.68425	4194.57080	1125.19666	168.06461	4106.44238	983.49249	179.90332	4225.96094	1084.92566	370.79819	4123.17090	957.98132	450.04196	4093.10352	996.28381	437.15802	4065.07983	914.34644	480.25845	4031.44312	953.68799	467.59259	3990.36255	896.48236	494.03339	3969.39282	880.72888	415.77405				4062.24414	641.82294	494.31467	4092.26318	569.76538	501.71570	4127.85498	584.76404	496.58450	4220.50830	1071.88318	-2.14175	4126.47266	977.04236	-82.50724	4090.98901	992.20892	-51.75960	4076.51782	924.28900	-119.47775	4034.90356	940.28156	-85.96710	4013.23901	860.79688	-152.87578	3974.65649	853.10791	-81.97292	4139.09570	551.71503	-144.72054	4066.95239	593.82312	-153.26497	4103.08643	536.07001	-154.21928				4190.57813	292.43695	499.18008				
1083	7.213				4321.17041	847.12604	196.94847	4202.72900	1125.22815	168.25331	4114.58545	983.68225	180.25720	4234.12451	1084.95898	371.17969	4131.38428	957.44629	450.31253	4101.44580	996.10681	437.46097	4073.45337	913.63074	480.33365	4039.74023	952.80383	467.77145	3998.77002	895.57788	494.18372	3977.68848	880.10101	415.72379				4068.58032	640.28882	494.17795	4099.04199	568.23413	501.78845	4134.45361	583.40863	496.73337	4228.63184	1071.69202	-2.08598	4134.57227	975.99646	-82.11980	4099.08643	991.30182	-51.54979	4084.96533	922.99963	-119.03335	4043.15820	938.93286	-85.59384	4021.95361	859.16718	-152.14284	3982.98706	851.70215	-81.28639	4148.35107	551.58258	-144.60561	4075.15186	592.22998	-151.86604	4112.33594	535.35626	-155.19388				4197.96289	292.49091	499.71225				
1084	7.220				4329.25537	847.31427	197.57036	4210.91943	1125.34216	168.38611	4122.41309	983.85223	180.69687	4242.15918	1084.96753	371.48511	4139.83594	956.74237	450.42551	4109.60596	994.99634	437.84576	4081.98169	912.69342	480.38943	4048.16113	951.92859	468.09601	4007.12744	894.21442	493.89633	3986.29370	879.23779	415.73932				4075.56372	638.64362	494.15952	4106.07715	566.81842	501.88751	4141.40527	582.27930	496.90973	4236.93115	1071.56433	-2.11975	4142.87012	974.97638	-81.90326	4107.03418	990.13885	-51.35894	4093.40820	921.60107	-118.55691	4051.56274	937.53320	-85.24274	4030.51782	857.40454	-151.36606	3991.93237	850.10956	-80.48358	4158.12598	551.60718	-144.21178	4085.17993	590.82324	-150.18164	4122.92529	534.77319	-153.73862				4205.42383	292.42926	500.29025				
